RBDS028runT35_grf
version=1
nRows=24
nColumns=19
inDegrees=no
endheader
time	ground_force_r_vx	ground_force_r_vy	ground_force_r_vz	ground_force_r_px	ground_force_r_py	ground_force_r_pz	ground_force_r_mx	ground_force_r_my	ground_force_r_mz	ground_force_l_vx	ground_force_l_vy	ground_force_l_vz	ground_force_l_px	ground_force_l_py	ground_force_l_pz	ground_force_l_mx	ground_force_l_my	ground_force_l_mz
     22.49800000	      0.00000000	      0.00000000	      0.00000000	      0.00000000	      0.00000000	      0.00000000	      0.00000000	      0.00000000	      0.00000000	   -176.06380335	   1099.20605314	      6.14476278	      2.05734301	      0.00000000	      0.96804747	     -0.00000000	     -2.15114951	      0.00000000
     22.49900000	      0.00000000	      0.00000000	      0.00000000	      0.00000000	      0.00000000	      0.00000000	      0.00000000	      0.00000000	      0.00000000	   -176.92309410	   1114.07159906	      6.41518038	      2.05472210	      0.00000000	      0.96831269	     -0.00000000	     -2.01946124	      0.00000000
     22.50000000	      0.00000000	      0.00000000	      0.00000000	      0.00000000	      0.00000000	      0.00000000	      0.00000000	      0.00000000	      0.00000000	   -177.78238484	   1128.93714498	      6.68559798	      2.05210119	      0.00000000	      0.96857791	     -0.00000000	     -1.88777298	      0.00000000
     22.50100000	      0.00000000	      0.00000000	      0.00000000	      0.00000000	      0.00000000	      0.00000000	      0.00000000	      0.00000000	      0.00000000	   -178.20769117	   1142.81046199	      7.04408824	      2.04944614	      0.00000000	      0.96877405	     -0.00000000	     -1.74272558	      0.00000000
     22.50200000	      0.00000000	      0.00000000	      0.00000000	      0.00000000	      0.00000000	      0.00000000	      0.00000000	      0.00000000	      0.00000000	   -178.63299750	   1156.68377900	      7.40257850	      2.04679109	      0.00000000	      0.96897019	     -0.00000000	     -1.59767818	      0.00000000
     22.50300000	      0.00000000	      0.00000000	      0.00000000	      0.00000000	      0.00000000	      0.00000000	      0.00000000	      0.00000000	      0.00000000	   -179.05830384	   1170.55709600	      7.76106875	      2.04413604	      0.00000000	      0.96916634	     -0.00000000	     -1.45263077	      0.00000000
     22.50400000	      0.00000000	      0.00000000	      0.00000000	      0.00000000	      0.00000000	      0.00000000	      0.00000000	      0.00000000	      0.00000000	   -179.18171063	   1183.73032257	      8.18241018	      2.04146251	      0.00000000	      0.96932034	     -0.00000000	     -1.30027998	      0.00000000
     22.50500000	      0.00000000	      0.00000000	      0.00000000	      0.00000000	      0.00000000	      0.00000000	      0.00000000	      0.00000000	      0.00000000	   -179.15416766	   1196.55350392	      8.63517720	      2.03877974	      0.00000000	      0.96945327	     -0.00000000	     -1.14427749	      0.00000000
     22.50600000	      0.00000000	      0.00000000	      0.00000000	      0.00000000	      0.00000000	      0.00000000	      0.00000000	      0.00000000	      0.00000000	   -179.12662468	   1209.37668527	      9.08794421	      2.03609698	      0.00000000	      0.96958621	     -0.00000000	     -0.98827500	      0.00000000
     22.50700000	      0.00000000	      0.00000000	      0.00000000	      0.00000000	      0.00000000	      0.00000000	      0.00000000	      0.00000000	      0.00000000	   -178.94302027	   1221.83317610	      9.57105100	      2.03340680	      0.00000000	      0.96970043	     -0.00000000	     -0.82964688	      0.00000000
     22.50800000	      0.00000000	      0.00000000	      0.00000000	      0.00000000	      0.00000000	      0.00000000	      0.00000000	      0.00000000	      0.00000000	   -178.44729299	   1233.55628589	     10.11483733	      2.03070182	      0.00000000	      0.96977722	     -0.00000000	     -0.66576752	      0.00000000
     22.50900000	      0.00000000	      0.00000000	      0.00000000	      0.00000000	      0.00000000	      0.00000000	      0.00000000	      0.00000000	      0.00000000	   -177.95156572	   1245.27939569	     10.65862367	      2.02799684	      0.00000000	      0.96985401	     -0.00000000	     -0.50188816	      0.00000000
     22.51000000	      0.00000000	      0.00000000	      0.00000000	      0.00000000	      0.00000000	      0.00000000	      0.00000000	      0.00000000	      0.00000000	   -177.45583844	   1257.00250549	     11.20241001	      2.02529185	      0.00000000	      0.96993080	     -0.00000000	     -0.33800880	      0.00000000
     22.51100000	      0.00000000	      0.00000000	      0.00000000	      0.00000000	      0.00000000	      0.00000000	      0.00000000	      0.00000000	      0.00000000	   -176.48061688	   1267.58366807	     11.82500980	      2.02256902	      0.00000000	      0.96995947	     -0.00000000	     -0.16987287	      0.00000000
     22.51200000	      0.00000000	      0.00000000	      0.00000000	      0.00000000	      0.00000000	      0.00000000	      0.00000000	      0.00000000	      0.00000000	   -175.50539531	   1278.16483065	     12.44760959	      2.01984618	      0.00000000	      0.96998814	     -0.00000000	     -0.00173694	      0.00000000
     22.51300000	      0.00000000	      0.00000000	      0.00000000	      0.00000000	      0.00000000	      0.00000000	      0.00000000	      0.00000000	      0.00000000	   -174.53017375	   1288.74599323	     13.07020938	      2.01712335	      0.00000000	      0.97001680	     -0.00000000	      0.16639898	      0.00000000
     22.51400000	      0.00000000	      0.00000000	      0.00000000	      0.00000000	      0.00000000	      0.00000000	      0.00000000	      0.00000000	      0.00000000	   -173.23078185	   1298.54314610	     13.73200577	      2.01439073	      0.00000000	      0.97001918	     -0.00000000	      0.33471255	      0.00000000
     22.51500000	      0.00000000	      0.00000000	      0.00000000	      0.00000000	      0.00000000	      0.00000000	      0.00000000	      0.00000000	      0.00000000	   -171.76930477	   1307.94829412	     14.41340046	      2.01165322	      0.00000000	      0.97000842	     -0.00000000	      0.50311494	      0.00000000
     22.51600000	      0.00000000	      0.00000000	      0.00000000	      0.00000000	      0.00000000	      0.00000000	      0.00000000	      0.00000000	      0.00000000	   -170.30782769	   1317.35344214	     15.09479514	      2.00891571	      0.00000000	      0.96999765	     -0.00000000	      0.67151733	      0.00000000
     22.51700000	      0.00000000	      0.00000000	      0.00000000	      0.00000000	      0.00000000	      0.00000000	      0.00000000	      0.00000000	      0.00000000	   -168.68370811	   1326.35765183	     15.78705405	      2.00617397	      0.00000000	      0.96997677	     -0.00000000	      0.83862166	      0.00000000
     22.51800000	      0.00000000	      0.00000000	      0.00000000	      0.00000000	      0.00000000	      0.00000000	      0.00000000	      0.00000000	      0.00000000	   -166.73430353	   1334.55998490	     16.50104138	      2.00342379	      0.00000000	      0.96993565	     -0.00000000	      1.00312986	      0.00000000
     22.51900000	      0.00000000	      0.00000000	      0.00000000	      0.00000000	      0.00000000	      0.00000000	      0.00000000	      0.00000000	      0.00000000	   -164.78489895	   1342.76231796	     17.21502872	      2.00067361	      0.00000000	      0.96989453	     -0.00000000	      1.16763805	      0.00000000
     22.52000000	      0.00000000	      0.00000000	      0.00000000	      0.00000000	      0.00000000	      0.00000000	      0.00000000	      0.00000000	      0.00000000	   -162.83549436	   1350.96465102	     17.92901605	      1.99792343	      0.00000000	      0.96985341	     -0.00000000	      1.33214625	      0.00000000
     22.52100000	      0.00000000	      0.00000000	      0.00000000	      0.00000000	      0.00000000	      0.00000000	      0.00000000	      0.00000000	      0.00000000	   -160.40211668	   1357.94387565	     18.64517852	      1.99516158	      0.00000000	      0.96979110	     -0.00000000	      1.48863989	      0.00000000
